<svg xmlns="http://www.w3.org/2000/svg" height="40" viewBox="0 -960 960 960" width="40" fill="#ffffff"><path d="M163-92q-29 0-49.833-20.5Q92.333-133 92.333-163v-150.333q0-31.333 16.834-51.666 16.833-20.334 49.166-29.667l103-23.667q25.667-6 47.5.167t40.5 24.5l100.333 100q31.334-16.667 61.667-40.5Q541.667-358 572.334-390q30.333-29.333 54.5-59.5 24.166-30.167 44.167-62.834l-103.667-93.333q-18-15-23.5-35.667-5.5-20.666-.833-48.333l26.333-113q7.333-32 28-49 20.666-17 53.666-17h147q30 0 50.333 20.834Q868.667-827 868.667-797q0 124.333-58 250.833Q752.666-419.667 646-313 540-207.334 414-149.667T163-92Z"/></svg>